<svg xmlns="http://www.w3.org/2000/svg" width="185" height="60" viewBox="0 0 185 60"><g fill="none" fill-rule="evenodd"><path fill="#B2B0B0" d="M170.599988,0 L12.3090534,0 C11.8628122,0 11.4193425,0 10.9675579,0.0198901307 C9.98578963,0.029865703 9.00627049,0.118217747 8.03788674,0.284144724 C7.07364841,0.453666155 6.13947245,0.769703452 5.26620166,1.22182231 C4.39407303,1.68010987 3.59727488,2.27549232 2.90472597,2.98636105 C2.21280237,3.69181815 1.63545928,4.50624524 1.19459627,5.39874976 C0.748671086,6.2971645 0.439290605,7.2601654 0.277168508,8.25440424 C0.117669236,9.24360098 0.0324208255,10.2438832 0.0221734807,11.2464482 C0,11.7067626 0,12.1670771 0,12.6245501 L0,47.1850729 C0,47.6482288 0,48.0971775 0.0221734807,48.5603334 C0.0322791114,49.5638477 0.117527995,50.5650854 0.277168508,51.5552188 C0.438735815,52.5443144 0.74621872,53.5024363 1.1890529,54.396666 C1.63141374,55.2904157 2.21170332,56.1050384 2.90749765,56.8090547 C3.59588564,57.5251723 4.3923266,58.122906 5.26620166,58.5792764 C6.13925866,59.0331268 7.07341193,59.3510718 8.03788674,59.5226369 C9.00394552,59.6843793 9.98045903,59.7717612 10.9592428,59.78405 C11.4110275,59.78405 11.8544971,59.8010987 12.3007384,59.8010987 L172.182621,59.8010987 C172.62609,59.8010987 173.080647,59.8010987 173.526888,59.78405 C174.50387,59.7725081 175.478595,59.6851204 176.442701,59.5226369 C177.406816,59.3496061 178.340762,59.0317315 179.214386,58.5792764 C180.088429,58.125568 180.884986,57.5296663 181.57309,56.8147376 C182.267202,56.1079168 182.848928,55.2939037 183.297078,54.4023489 C183.736162,53.5072667 184.040791,52.5493033 184.200647,51.5609017 C184.364894,50.5709718 184.457536,49.5699491 184.477816,48.5660163 C184.477816,48.1028604 184.477816,47.6539117 184.477816,47.1907558 C184.477816,46.645198 184.477816,46.105323 184.477816,45.5540822 L184.477816,14.2583823 C184.477816,13.709983 184.477816,13.1672665 184.477816,12.6245501 C184.477816,12.1670771 184.477816,11.7067626 184.477816,11.2464482 C184.45741,10.2434647 184.364768,9.24339612 184.200647,8.25440424 C184.040502,7.26607503 183.735887,6.30815522 183.297078,5.412957 C182.398881,3.61520998 180.975406,2.14994664 179.225472,1.22182231 C178.351483,0.772085841 177.417521,0.457078326 176.453787,0.286986172 C175.486447,0.120165963 174.50778,0.031807221 173.526888,0.022731578 C173.080647,0.022731578 172.62609,0.00568289449 172.182621,0.00284144724 L170.599988,0.00284144724"/><path fill="#000" fill-rule="nonzero" d="M12.3145968,58.4968744 C11.8711272,58.4968744 11.4387443,58.4968744 10.9980464,58.4798257 C10.084295,58.4675241 9.17268778,58.3858458 8.27070828,58.2354613 C7.4306289,58.0878839 6.61687443,57.81204 5.85657058,57.4171245 C5.10148382,57.0257939 4.41270233,56.5125153 3.81661036,55.8969502 C3.21324467,55.2881849 2.71054214,54.5828103 2.32821547,53.8084865 C1.94399049,53.0281187 1.67675192,52.1928133 1.53551354,51.3307445 C1.38640343,50.4044165 1.30579502,49.4678605 1.29437693,48.5290775 C1.29437693,48.2136768 1.27220345,47.1623414 1.27220345,47.1623414 L1.27220345,12.6245501 C1.27220345,12.6245501 1.27220345,11.5902633 1.29437693,11.2890699 C1.30499412,10.3511879 1.38560836,9.41551411 1.53551354,8.49024436 C1.67464367,7.62492595 1.94196409,6.78649006 2.32821547,6.00397803 C2.70810302,5.23031292 3.20796212,4.52498773 3.8082953,3.9155143 C4.40794371,3.29864142 5.09814306,2.78186503 5.85379889,2.38397424 C6.61338542,1.9908971 7.42623371,1.71695928 8.26516491,1.57132033 C9.16990702,1.42068186 10.0842967,1.33900326 11.0008181,1.32695586 L12.3145968,1.30706573 L172.174306,1.30706573 L173.504714,1.32695586 C174.413759,1.33919157 175.320696,1.41991676 176.218194,1.56847888 C177.065388,1.71740427 177.886398,1.99413226 178.654505,2.38965713 C180.167999,3.18828049 181.399103,4.45335213 182.174545,6.00681947 C182.554742,6.78390589 182.818253,7.61541191 182.956161,8.47319568 C183.10686,9.40625407 183.192077,10.3491929 183.211156,11.2947528 C183.211156,11.7181284 183.211156,12.17276 183.211156,12.6245501 C183.211156,13.1928396 183.211156,13.7185073 183.211156,14.2583823 L183.211156,45.5483993 C183.211156,46.0911157 183.211156,46.6224664 183.211156,47.1566585 C183.211156,47.6425459 183.211156,48.0858117 183.211156,48.5461262 C183.193555,49.4745707 183.110185,50.4004779 182.961704,51.3165372 C182.824869,52.1853063 182.559423,53.0275588 182.174545,53.8141694 C181.788642,54.5796827 181.288311,55.2786021 180.691694,55.8855844 C180.096127,56.5040675 179.40733,57.0202361 178.651734,57.414283 C177.886743,57.8126873 177.067127,58.0895755 176.220966,58.2354613 C175.319073,58.3865559 174.407414,58.4682389 173.493628,58.4798257 C173.066788,58.4798257 172.617775,58.4968744 172.185392,58.4968744 L12.3145968,58.4968744 L12.3145968,58.4968744 Z"/><path fill="#FFFFFD" d="M36.1261434 30.3523395C36.0901115 26.2379238 39.4105902 24.237545 39.5630329 24.1437772 38.2287177 22.186537 36.0706797 20.9908119 33.7424942 20.9187346 31.2950963 20.65448 28.9197621 22.4190188 27.6725039 22.4190188 26.4252456 22.4190188 24.4795226 20.9443076 22.4063022 20.9982951 19.6879285 21.0898222 17.214669 22.6335513 15.8872989 25.0672476 13.0657235 30.0710362 15.1694325 37.4303845 17.8718254 41.4766054 19.2244077 43.4656185 20.8014965 45.673423 22.8608586 45.5938625 24.881417 45.5086191 25.6325436 44.2725895 28.0799416 44.2725895 30.5273395 44.2725895 31.2064023 45.5938625 33.3156547 45.5427164 35.4858841 45.5086191 36.8550965 43.5537034 38.1577885 41.550483 39.1303074 40.1401517 39.8787025 38.5807529 40.3751366 36.9302898 40.3252463 36.9103997 36.1594036 35.2822504 36.1178283 30.3523395M32.151547 18.2562985C33.2408192 16.8611479 33.9836308 14.9630612 33.7785261 13.03656 32.2014373 13.1075961 30.2335409 14.1532487 29.0999217 15.5199848 28.0965717 16.721917 27.1985457 18.6938814 27.4369106 20.5436636 29.2052457 20.680053 31.0234711 19.6287176 32.1487753 18.2705058"/><polygon fill="#FFFFFD" points="52 21.981 52 14.321 49.261 14.321 49.261 13.059 56.082 13.059 56.082 14.321 53.352 14.321 53.352 21.981"/><path fill="#FFFFFD" d="M58.7375503,14.1219928 L60.2508903,11.9965903 L61.7725454,11.9965903 L60.0762742,14.1219928 L58.7375503,14.1219928 Z M57.8090358,17.9920439 L61.1350579,17.9920439 C61.1045693,16.9350256 60.4781685,16.2473953 59.5163938,16.2473953 C58.554619,16.2473953 57.8894146,16.9435499 57.8173508,17.9920439 L57.8090358,17.9920439 Z M62.3629143,20.1742754 C62.066344,21.3818905 61.0186471,22.1235082 59.5163938,22.1235082 C57.6344196,22.1235082 56.4841703,20.7993938 56.4841703,18.6484183 C56.4841703,16.4974427 57.6593648,15.1307066 59.5108504,15.1307066 C61.362336,15.1307066 62.4405215,16.4093578 62.4405215,18.5233946 L62.4405215,18.9865505 L57.8090358,18.9865505 L57.8090358,19.0376965 C57.8533827,20.2197386 58.5213588,20.9670392 59.557969,20.9670392 C60.3423559,20.9670392 60.8800628,20.6828945 61.1211994,20.1515439 L62.3629143,20.1742754 Z"/><polygon fill="#FFFFFD" points="64.248 21.981 65.542 21.981 65.542 12.619 64.248 12.619"/><path fill="#FFFFFD" d="M69.5942407 14.1219928 71.1075808 11.9965903 72.6181492 11.9965903 70.9246496 14.1219928 69.5942407 14.1219928ZM68.6629545 17.9920439 71.9889766 17.9920439C71.9584881 16.9350256 71.3320873 16.2473953 70.3730842 16.2473953 69.4140812 16.2473953 68.7461051 16.9435499 68.6712696 17.9920439L68.6629545 17.9920439ZM73.2223765 20.1742754C72.9285779 21.3818905 71.8781092 22.1235082 70.3786276 22.1235082 68.4966534 22.1235082 67.3436324 20.7993938 67.3436324 18.6484183 67.3436324 16.4974427 68.5215986 15.1307066 70.3730842 15.1307066 72.2245699 15.1307066 73.3027554 16.4093578 73.3027554 18.5233946L73.3027554 18.9865505 68.6629545 18.9865505 68.6629545 19.0376965C68.7073015 20.2197386 69.3780493 20.9670392 70.4118878 20.9670392 71.1990464 20.9670392 71.7367533 20.6828945 71.9751182 20.1515439L73.2223765 20.1742754ZM79.3422572 17.4493275C79.1898145 16.7929532 78.6604226 16.3127486 77.7928852 16.3127486 76.7063846 16.3127486 76.0411802 17.1651828 76.0411802 18.6001137 76.0411802 20.0350445 76.711928 20.9329418 77.7928852 20.9329418 78.6105323 20.9329418 79.1787277 20.5493465 79.3422572 19.8247774L80.6006022 19.8247774C80.4315294 21.1801478 79.4198643 22.1178253 77.7984286 22.1178253 75.8859659 22.1178253 74.7163148 20.7965524 74.7163148 18.6001137 74.7163148 16.4036749 75.8804225 15.1250237 77.7928852 15.1250237 79.4364945 15.1250237 80.4315294 16.1110059 80.6006022 17.4578519L79.3422572 17.4493275ZM82.3190469 12.6188672 83.6051088 12.6188672 83.6051088 16.3297973 83.7048895 16.3297973C84.0236333 15.5768138 84.7165545 15.1250237 85.7060461 15.1250237 87.1057471 15.1250237 87.9677411 16.0342868 87.9677411 17.6340216L87.9677411 21.9814359 86.6705925 21.9814359 86.6705925 17.960788C86.6705925 16.886721 86.1827759 16.3411631 85.2653482 16.3411631 84.2037928 16.3411631 83.6023371 17.0287933 83.6023371 18.0460314L83.6023371 21.9814359 82.3190469 21.9814359 82.3190469 12.6188672ZM93.8243117 19.5008524 93.8243117 18.932563 92.2195061 19.0376965C91.3159367 19.1002084 90.9057273 19.415609 90.9057273 20.0094715 90.9057273 20.603334 91.4212607 20.9670392 92.1252688 20.9670392 93.1009019 20.9670392 93.8243117 20.330555 93.8243117 19.4951695M89.6030353 20.063459C89.6030353 18.850161 90.4844312 18.151165 92.0448899 18.0545558L93.8243117 17.9465808 93.8243117 17.3782913C93.8243117 16.6679295 93.3669837 16.264444 92.4800444 16.264444 91.7566346 16.264444 91.2549596 16.5485887 91.110832 17.0145861L89.8552587 17.0145861C89.9882996 15.8552756 91.0498549 15.1136579 92.5410215 15.1136579 94.1874025 15.1136579 95.1131453 15.9660921 95.1131453 17.3868157L95.1131453 21.9814359 93.865887 21.9814359 93.865887 21.0267096 93.7661063 21.0267096C93.3410432 21.7166378 92.587863 22.1200579 91.7926665 22.083728 90.5260065 22.083728 89.6030353 21.2994885 89.6030353 20.0691419M97.1447904 15.2472059 98.3948204 15.2472059 98.3948204 16.2786513 98.4918294 16.2786513C98.6775323 15.6194355 99.4064855 15.1420724 100.265708 15.1420724 100.459142 15.140586 100.652248 15.1586695 100.842218 15.1960599L100.842218 16.5088085C100.604354 16.4571012 100.361959 16.4304426 100.118809 16.429248 99.1348603 16.429248 98.4557975 17.0657321 98.4557975 18.0119341L98.4557975 21.9899602 97.1614206 21.9899602 97.1447904 15.2472059ZM106.632268 18.5290775C106.632268 17.1879144 105.955977 16.3297973 104.852847 16.3297973 103.749716 16.3297973 103.112228 17.1822315 103.112228 18.5290775 103.112228 19.8759235 103.738629 20.7425649 104.852847 20.7425649 105.967064 20.7425649 106.632268 19.8901307 106.632268 18.5404433M102.031271 22.6662247 103.358908 22.6662247C103.467004 23.1549536 104.015798 23.4703542 104.89165 23.4703542 105.969836 23.4703542 106.607323 22.9446865 106.607323 22.0496306L106.607323 20.7425649 106.513086 20.7425649C106.099617 21.4786943 105.320291 21.9170711 104.492528 21.8791438 102.829517 21.8791438 101.78182 20.5493465 101.78182 18.5347604 101.78182 16.5201743 102.829517 15.1250237 104.506386 15.1250237 105.356245 15.0948269 106.151614 15.5529349 106.56852 16.3127486L106.671072 16.3127486 106.671072 15.2472059 107.912787 15.2472059 107.912787 22.0354234C107.912787 23.5754878 106.737593 24.5529456 104.880564 24.5529456 103.239726 24.5529456 102.178171 23.7971207 102.039586 22.6548589M110.964412 17.9920439 114.290434 17.9920439C114.259946 16.9350256 113.633545 16.2473953 112.674542 16.2473953 111.715539 16.2473953 111.044791 16.9407085 110.972727 17.9920439L110.964412 17.9920439ZM115.523834 20.1742754C115.230036 21.3818905 114.179567 22.1206668 112.677314 22.1206668 110.798111 22.1206668 109.64509 20.7993938 109.64509 18.6484183 109.64509 16.4974427 110.820285 15.1307066 112.67177 15.1307066 114.523256 15.1307066 115.601441 16.4093578 115.601441 18.5233946L115.601441 18.9865505 110.964412 18.9865505 110.964412 19.0376965C111.005988 20.2197386 111.676735 20.9670392 112.713346 20.9670392 113.497732 20.9670392 114.035439 20.6828945 114.276576 20.1515439L115.523834 20.1742754ZM117.34206 15.2472059 118.589318 15.2472059 118.589318 16.2786513 118.686327 16.2786513C118.874801 15.6194355 119.603755 15.1420724 120.460205 15.1420724 120.65364 15.140586 120.846745 15.1586695 121.036716 15.1960599L121.036716 16.5088085C120.798851 16.4571012 120.556456 16.4304426 120.313306 16.429248 119.33213 16.429248 118.650295 17.0657321 118.650295 18.0119341L118.650295 21.9899602 117.353146 21.9899602 117.34206 15.2472059ZM127.045729 18.6114794C127.045729 20.0322031 127.702618 20.8846372 128.800206 20.8846372 129.897793 20.8846372 130.568541 20.0123129 130.568541 18.6114794 130.568541 17.210646 129.886706 16.3383217 128.800206 16.3383217 127.713705 16.3383217 127.045729 17.2049631 127.045729 18.6114794M125.707005 18.6114794C125.707005 16.4832355 126.774104 15.1363895 128.434343 15.1363895 129.272098 15.0963252 130.056694 15.5572166 130.446587 16.3184315L130.546367 16.3184315 130.546367 12.6245501 131.843516 12.6245501 131.843516 21.9785944 130.601801 21.9785944 130.601801 20.9158932 130.499249 20.9158932C130.078497 21.6703785 129.284314 22.1234258 128.437115 22.0922523 126.774104 22.0922523 125.709777 20.7425649 125.709777 18.6114794M137.813726 19.5008524 137.813726 18.932563 136.20892 19.0376965C135.305351 19.1002084 134.895141 19.415609 134.895141 20.0094715 134.895141 20.603334 135.407903 20.9670392 136.114683 20.9670392 137.090316 20.9670392 137.813726 20.330555 137.813726 19.4951695M133.592449 20.063459C133.592449 18.850161 134.473845 18.151165 136.034304 18.0545558L137.813726 17.9465808 137.813726 17.3782913C137.813726 16.6679295 137.356398 16.264444 136.469458 16.264444 135.746049 16.264444 135.244374 16.5485887 135.100246 17.0145861L133.844673 17.0145861C133.977713 15.8552756 135.039269 15.1136579 136.530435 15.1136579 138.176816 15.1136579 139.105331 15.9660921 139.105331 17.3868157L139.105331 21.9814359 137.855301 21.9814359 137.855301 21.0267096 137.752749 21.0267096C137.327685 21.7166378 136.574505 22.1200579 135.779309 22.083728 134.512649 22.083728 133.589678 21.2994885 133.589678 20.0691419M141.134204 15.2472059 142.381463 15.2472059 142.381463 16.3184315 142.478472 16.3184315C142.797215 15.5682894 143.448561 15.1193408 144.438053 15.1193408 145.904274 15.1193408 146.710835 16.0200796 146.710835 17.6226558L146.710835 21.9814359 145.416458 21.9814359 145.416458 17.9551051C145.416458 16.8725137 144.956358 16.3354802 143.997355 16.3354802 143.038352 16.3354802 142.431353 16.9918545 142.431353 18.0403486L142.431353 21.9814359 141.134204 21.9814359 141.134204 15.2472059ZM151.115042 15.1193408C152.592351 15.1193408 153.559669 15.8211783 153.687166 17.0089032L152.44268 17.0089032C152.323497 16.5173328 151.852311 16.2019322 151.115042 16.2019322 150.377774 16.2019322 149.842839 16.5514302 149.842839 17.0770979 149.842839 17.4805834 150.175441 17.7334722 150.887764 17.9011176L151.977036 18.1596893C153.227066 18.4438341 153.811892 19.0121235 153.811892 19.9981057 153.811892 21.2625497 152.661643 22.1121425 151.090097 22.1121425 149.518552 22.1121425 148.51243 21.3875734 148.396019 20.1941656L149.693168 20.1941656C149.856697 20.7141504 150.338971 21.0465997 151.123357 21.0465997 151.907744 21.0465997 152.5092 20.6743701 152.5092 20.1373366 152.5092 19.7366926 152.201543 19.4752794 151.541882 19.3133169L150.397176 19.0291722C149.147146 18.7251373 148.570635 18.151165 148.570635 17.1481341 148.570635 15.9547263 149.637734 15.1164993 151.120586 15.1164993"/><polygon fill="#FFFFFD" points="51.332 45.58 54.045 45.58 54.045 27.011 51.332 27.011"/><polygon fill="#FFFFFD" points="57.313 33.805 58.793 27.011 61.429 27.011 59.633 33.805"/><path fill="#FFFFFD" d="M65.4866034 38.2458799 70.9551381 38.2458799 68.2555168 30.0994507 68.183453 30.0994507 65.4866034 38.2458799ZM71.6730045 40.5616594 64.7715087 40.5616594 63.1084976 45.5796552 60.1899132 45.5796552 66.7283184 27.0136389 69.7771719 27.0136389 76.3155771 45.5796552 73.3304722 45.5796552 71.6730045 40.5616594ZM87.6406823 38.8113279C87.6406823 36.0721728 86.2548398 34.2650123 84.1483591 34.2650123 82.0418784 34.2650123 80.6865244 36.1062701 80.6865244 38.8113279 80.6865244 41.5163857 82.072367 43.3576435 84.1483591 43.3576435 86.2243512 43.3576435 87.6406823 41.5703732 87.6406823 38.8113279M90.4262258 38.8113279C90.4262258 43.0166698 88.2282795 45.7217276 84.9161159 45.7217276 83.0341417 45.7217276 81.5402034 44.8692934 80.7585882 43.3519606L80.6948395 43.3519606 80.6948395 50.0549346 77.9841315 50.0549346 77.9841315 32.0430006 80.6089172 32.0430006 80.6089172 34.2934268 80.6560359 34.2934268C81.4071625 32.8414472 83.0147399 31.9009282 84.8606822 31.9009282 88.2116494 31.9009282 90.4206824 34.6173518 90.4206824 38.8113279M102.172627 38.8113279C102.172627 36.0721728 100.786785 34.2650123 98.680304 34.2650123 96.5738233 34.2650123 95.2184693 36.1062701 95.2184693 38.8113279 95.2184693 41.5163857 96.6043119 43.3576435 98.680304 43.3576435 100.756296 43.3576435 102.172627 41.5703732 102.172627 38.8113279M104.958171 38.8113279C104.958171 43.0166698 102.760224 45.7217276 99.4480607 45.7217276 97.5660866 45.7217276 96.0721483 44.8692934 95.2905331 43.3519606L95.2267844 43.3519606 95.2267844 50.0549346 92.518848 50.0549346 92.518848 32.0430006 95.1436338 32.0430006 95.1436338 34.2934268 95.1935241 34.2934268C95.9446508 32.8414472 97.5522281 31.9009282 99.3981704 31.9009282 102.749138 31.9009282 104.958171 34.6173518 104.958171 38.8113279M114.562059 40.4053798C114.764393 42.2466376 116.502239 43.4570941 118.891432 43.4570941 121.1753 43.4570941 122.818909 42.2466376 122.818909 40.5872324 122.818909 39.1466187 121.826646 38.2828187 119.492887 37.6917977L117.14527 37.109301C113.819248 36.2881228 112.275419 34.6940708 112.275419 32.1055124 112.275419 28.9032014 114.999986 26.7067626 118.866486 26.7067626 122.732987 26.7067626 125.316198 28.9088843 125.404892 32.1055124L122.669238 32.1055124C122.502937 30.2528888 121.006227 29.1333586 118.827683 29.1333586 116.649138 29.1333586 115.149657 30.2699375 115.149657 31.912294 115.149657 33.2250426 116.105888 33.9979163 118.436875 34.5889373L120.43526 35.0918735C124.149318 35.9926122 125.701462 37.5241523 125.701462 40.2405759 125.701462 43.7128244 123.001841 45.889373 118.711272 45.889373 114.6951 45.889373 111.981621 43.7639704 111.807005 40.4053798L114.562059 40.4053798ZM131.533087 28.8378481 131.533087 32.0430006 134.044234 32.0430006 134.044234 34.2422807 131.533087 34.2422807 131.533087 41.7067626C131.533087 42.8632317 132.034762 43.411631 133.137893 43.411631 133.436322 43.4064385 133.734256 43.3846219 134.030376 43.3462777L134.030376 45.5341921C133.534162 45.6285194 133.029941 45.6713574 132.525351 45.6620572 129.850674 45.6620572 128.808521 44.6334533 128.808521 42.0079561L128.808521 34.2422807 126.887743 34.2422807 126.887743 32.0430006 128.808521 32.0430006 128.808521 28.8378481 131.533087 28.8378481ZM145.258472 38.8113279C145.258472 35.8874787 143.953008 34.1655617 141.757834 34.1655617 139.562659 34.1655617 138.254424 35.9016859 138.254424 38.8113279 138.254424 41.7209699 139.562659 43.4542527 141.757834 43.4542527 143.953008 43.4542527 145.258472 41.7493844 145.258472 38.8113279M135.496597 38.8113279C135.496597 34.549157 137.941223 31.8753552 141.757834 31.8753552 145.574444 31.8753552 148.021842 34.5519985 148.021842 38.8113279 148.021842 43.0706573 145.599389 45.7473006 141.757834 45.7473006 137.916278 45.7473006 135.496597 43.0820231 135.496597 38.8113279M150.25582 32.0430006 152.83903 32.0430006 152.83903 34.3445728 152.902779 34.3445728C153.265714 32.8631883 154.590264 31.8441801 156.07913 31.9009282 156.391393 31.8993132 156.702847 31.9336253 157.007645 32.0032203L157.007645 34.6031445C156.613706 34.4795214 156.202674 34.4228898 155.790875 34.4354991 154.047485 34.4354991 152.966528 35.6459557 152.966528 37.5610911L152.966528 45.591021 150.25582 45.591021 150.25582 32.0430006ZM160.341982 37.5639326 166.944136 37.5639326C166.880387 35.4896761 165.588782 34.1286228 163.704036 34.1286228 161.81929 34.1286228 160.480566 35.5180905 160.341982 37.5639326ZM169.505173 41.6016291C169.13931 44.059481 166.805552 45.7473006 163.820447 45.7473006 159.978891 45.7473006 157.59247 43.1075961 157.59247 38.8766812 157.59247 34.6457662 159.989978 31.8753552 163.690178 31.8753552 167.34603 31.8753552 169.640985 34.4497064 169.640985 38.5527562L169.640985 39.4961167 160.328124 39.4961167 160.328124 39.6637621C160.328124 41.9795416 161.747226 43.4997159 163.881424 43.4997159 165.386449 43.4997159 166.567187 42.763781 166.930277 41.5931048L169.505173 41.6016291Z"/></g></svg>