<svg xmlns="http://www.w3.org/2000/svg" width="198" height="60" viewBox="0 0 198 60"><defs><linearGradient id="a" x1="52.466%" x2="43.799%" y1="6.783%" y2="73.655%"><stop offset="0%" stop-color="#429FF7"/><stop offset="1%" stop-color="#43A0F7"/><stop offset="26%" stop-color="#52BCF8"/><stop offset="51%" stop-color="#5CCFF9"/><stop offset="76%" stop-color="#63DCFA"/><stop offset="100%" stop-color="#65DFFA"/></linearGradient><linearGradient id="b" x1="110.449%" x2="-127.853%" y1="39.106%" y2="39.106%"><stop offset="0%" stop-color="#FADE4B"/><stop offset="41%" stop-color="#F5BD42"/><stop offset="78%" stop-color="#F2A63B"/><stop offset="100%" stop-color="#F19E39"/></linearGradient><linearGradient id="c" x1="71.155%" x2="-65.363%" y1="31.109%" y2="97.025%"><stop offset="0%" stop-color="#EB4D4C"/><stop offset="100%" stop-color="#B22C62"/></linearGradient><linearGradient id="d" x1="-33.942%" x2="27.003%" y1="8.3%" y2="37.614%"><stop offset="0%" stop-color="#549C75"/><stop offset="7%" stop-color="#54A375"/><stop offset="48%" stop-color="#60CA7D"/><stop offset="80%" stop-color="#6AE180"/><stop offset="100%" stop-color="#6DEA82"/></linearGradient></defs><g fill="none" transform="translate(.478)"><rect width="197.524" height="60" fill="#000" rx="7.301"/><path fill="#A5A5A5" d="M190.20966,1.19909074 C193.60272,1.20065867 196.354486,4.02011749 196.354486,7.49857928 L196.354486,52.4985793 C196.354486,55.9776907 193.603354,58.7980685 190.20966,58.7980685 L7.31724862,58.7980685 C5.68731405,58.798822 4.12392607,58.13537 2.97138817,56.9538232 C1.81885027,55.7722764 1.17242216,54.1695386 1.17242216,52.4985793 L1.17242216,7.49857928 C1.17242216,4.01946782 3.92355502,1.19909074 7.31724862,1.19909074 L190.20966,1.19909074 M190.20966,0 L7.31724862,0 C3.27712596,0 0,3.35676871 0,7.49857928 L0,52.4985793 C0,56.6414995 3.27604379,60 7.31724862,60 L190.20966,60 C192.150061,60 194.010947,59.2095835 195.382757,57.8027125 C196.754567,56.3958415 197.524138,54.4878184 197.524138,52.4985793 L197.524138,7.49857928 C197.524138,5.5098324 196.753507,3.60253942 195.381777,2.19628302 C194.010046,0.79002662 192.14958,0 190.20966,0 Z"/><path fill="#FFF" d="M99.7085991,32.6254973 C97.1871332,32.6312533 94.9173809,34.1937165 93.9579007,36.5841912 C92.9984204,38.9746659 93.5382045,41.7222917 95.3255105,43.5456415 C97.1128165,45.3689912 99.7955922,45.9089131 102.122655,44.9136004 C104.449718,43.9182878 105.962698,41.5837908 105.955977,38.9988634 C105.979564,37.2957959 105.327932,35.6558329 104.150259,34.4544105 C102.972586,33.252988 101.369718,32.5929856 99.7085991,32.6254973 L99.7085991,32.6254973 Z M99.7085991,42.8689146 C98.1623416,42.9797464 96.7071364,42.1103282 96.0389881,40.6764907 C95.3708399,39.2426532 95.6255496,37.5358237 96.6812932,36.3723552 C97.7370367,35.2088867 99.3792344,34.8252539 100.822446,35.4049432 C102.265657,35.9846325 103.216549,37.4098221 103.220324,38.9988634 C103.266893,39.9926172 102.92047,40.9636135 102.25947,41.6920598 C101.59847,42.4205061 100.678788,42.8448055 99.7085991,42.8689146 L99.7085991,42.8689146 Z M86.0719085,32.6254973 C83.5504426,32.6312533 81.2806903,34.1937165 80.3212101,36.5841912 C79.3617298,38.9746659 79.9015139,41.7222917 81.6888199,43.5456415 C83.4761259,45.3689912 86.1589016,45.9089131 88.4859645,44.9136004 C90.8130274,43.9182878 92.3260074,41.5837908 92.3192867,38.9988634 C92.3444358,37.2953189 91.6933041,35.6544173 90.5152853,34.4526419 C89.3372664,33.2508665 87.7334853,32.5913816 86.0719085,32.6254973 L86.0719085,32.6254973 Z M86.0719085,42.8689146 C84.525651,42.9797464 83.0704458,42.1103282 82.4022975,40.6764907 C81.7341493,39.2426532 81.988859,37.5358237 83.0446026,36.3723552 C84.1003461,35.2088867 85.7425438,34.8252539 87.185755,35.4049432 C88.6289663,35.9846325 89.5798587,37.4098221 89.5836335,38.9988634 C89.6302026,39.9926172 89.2837795,40.9636135 88.6227797,41.6920598 C87.9617799,42.4205061 87.042097,42.8448055 86.0719085,42.8689146 L86.0719085,42.8689146 Z M69.8603225,34.5889373 L69.8603225,37.2883122 L76.1797645,37.2883122 C76.080778,38.5615041 75.5650734,39.7630602 74.7163148,40.6980489 C73.4361758,42.0412168 71.6600519,42.7641776 69.829834,42.6870619 C67.2878372,42.7388383 64.9170206,41.3781901 63.6312188,39.1295812 C62.3454169,36.8809722 62.3454169,34.0955385 63.6312188,31.8469295 C64.9170206,29.5983206 67.2878372,28.2376724 69.829834,28.2894488 C71.6160537,28.2617234 73.3409286,28.9569918 74.6303925,30.2244743 L76.4874215,28.3178632 C74.7261398,26.5246425 72.3340279,25.5351098 69.8520074,25.5730252 C66.3034518,25.42209 62.9595888,27.2768629 61.1414418,30.4045989 C59.3232948,33.5323349 59.3232948,37.4299686 61.1414418,40.5577046 C62.9595888,43.6854406 66.3034518,45.5402134 69.8520074,45.3892783 C72.3821583,45.4959505 74.836132,44.4888276 76.5955172,42.6217087 C78.1328454,40.8917685 78.9520921,38.6157702 78.8793858,36.276757 C78.8850295,35.7140059 78.8404974,35.1519034 78.7463449,34.5974616 L69.8603225,34.5889373 Z M136.153486,36.6887668 C135.225311,33.8815031 132.407643,32.2178637 129.57329,32.8036133 C126.738937,33.3893629 124.77005,36.0421955 124.97528,38.9988634 C124.942966,41.817234 126.728105,44.3196097 129.357782,45.1421775 C131.98746,45.9647454 134.831219,44.9102968 136.339189,42.5535139 L134.216078,41.0532298 C133.574132,42.1500268 132.414881,42.8177074 131.167225,42.8092442 C129.869617,42.8636052 128.672796,42.0949308 128.154403,40.8742186 L136.469458,37.3479826 L136.153486,36.6887668 Z M127.669358,38.8198522 C127.608036,37.8799136 127.920044,36.9544916 128.534445,36.2539872 C129.148846,35.5534829 130.013432,35.1374216 130.931632,35.1003978 C131.892589,35.0357327 132.797842,35.5674796 133.229359,36.4500852 L127.669358,38.8198522 Z M120.909218,45 L123.644872,45 L123.644872,26.2464482 L120.909218,26.2464482 L120.909218,45 Z M116.430175,34.0490623 L116.327623,34.0490623 C115.487315,33.1121623 114.292542,32.5940381 113.051491,32.6283387 C109.738327,32.8039508 107.139833,35.6091375 107.139833,39.0102292 C107.139833,42.4113209 109.738327,45.2165077 113.051491,45.3921197 C114.30707,45.4175949 115.508278,44.8675096 116.327623,43.8918356 L116.430175,43.8918356 L116.430175,44.8067816 C116.430175,47.2504262 115.157972,48.5574919 113.104153,48.5574919 C111.702694,48.5245414 110.4597,47.6263707 109.958291,46.2843342 L107.5885,47.287365 C108.485861,49.5971968 110.679105,51.1010577 113.104153,51.0693313 C116.308221,51.0693313 118.957952,49.1343057 118.957952,44.4231862 L118.957952,33.0005683 L116.424632,33.0005683 L116.430175,34.0490623 Z M113.284313,42.8575488 C111.291869,42.7336187 109.7379,41.04095 109.7379,38.9946013 C109.7379,36.9482525 111.291869,35.2555838 113.284313,35.1316537 C114.22903,35.1772472 115.115554,35.612776 115.742068,36.3390911 C116.368582,37.0654062 116.68177,38.0206998 116.610335,38.9874976 C116.692124,39.9581313 116.382977,40.9208084 115.754738,41.6518065 C115.126499,42.3828045 114.233877,42.8184675 113.284313,42.8575488 Z M148.97253,26.2379238 L142.417495,26.2379238 L142.417495,44.9914757 L145.153148,44.9914757 L145.153148,37.8878575 L148.97253,37.8878575 C151.075845,38.004554 153.069981,36.920549 154.155881,35.070206 C155.241782,33.219863 155.241782,30.9059184 154.155881,29.0555754 C153.069981,27.2052324 151.075845,26.1212274 148.97253,26.2379238 L148.97253,26.2379238 Z M148.97253,35.2367873 L145.153148,35.2367873 L145.153148,28.8605797 L149.033507,28.8605797 C150.72624,28.91222 152.07235,30.3338879 152.07235,32.0699943 C152.07235,33.8061007 150.72624,35.2277686 149.033507,35.279409 L148.97253,35.2367873 Z M165.857635,32.5516196 C163.820771,32.4243788 161.905278,33.5514426 160.985013,35.4186399 L163.399151,36.4529267 C164.434278,35.0007466 166.40659,34.6524373 167.85602,35.6658458 C168.406676,36.1193545 168.756272,36.7808504 168.82611,37.5014207 L168.82611,37.6832733 C167.946601,37.2090929 166.967765,36.9613941 165.974046,36.9615457 C163.368662,36.9615457 160.707844,38.4618299 160.707844,41.1924607 C160.759961,42.3649893 161.273531,43.4657672 162.131218,44.2432984 C162.988904,45.0208296 164.117427,45.4086819 165.258951,45.3182421 C166.65634,45.3964692 167.986556,44.6972486 168.740188,43.4883501 L168.828882,43.4883501 L168.828882,44.9886342 L171.461983,44.9886342 L171.461983,37.7912483 C171.461983,34.5036939 169.033986,32.5999242 165.918612,32.5999242 L165.857635,32.5516196 Z M165.51949,42.8262929 C164.627007,42.8262929 163.382521,42.363137 163.382521,41.2379238 C163.382521,39.7376397 164.934664,39.2290206 166.30942,39.2290206 C167.180863,39.2047269 168.042585,39.4216536 168.803937,39.8569805 C168.613032,41.5419408 167.237545,42.823415 165.583238,42.8575488 L165.51949,42.8262929 Z M181.057556,32.9892025 L177.928324,41.1185831 L177.83963,41.1185831 L174.591215,32.9892025 L171.664316,32.9892025 L176.536938,44.3549915 L173.765253,50.6686873 L176.692152,50.6686873 L184.109182,32.9863611 L181.057556,32.9892025 Z M156.478253,44.9886342 L159.200048,44.9886342 L159.200048,26.2350824 L156.478253,26.2350824 L156.478253,44.9886342 Z"/><path fill="url(#a)" d="M15.2775282,11.30896 C14.8097467,11.8993132 14.57883,12.6501397 14.6317255,13.4087895 L14.6317255,46.5997348 C14.5812504,47.3652875 14.8283724,48.1202056 15.3191034,48.6995643 L15.4216558,48.8189051 L33.506901,30.2358401 L33.506901,29.7868915 L15.3773088,11.2038265 L15.2775282,11.30896 Z"/><path fill="url(#b)" d="M39.5048275,36.4188293 L33.506901,30.2244743 L33.506901,29.7755257 L39.5048275,23.5840121 L39.6378684,23.6749384 L46.8220761,27.846183 C48.8703514,29.0310665 48.8703514,30.971775 46.8220761,32.17939 L39.6655852,36.3506346 L39.5048275,36.4188293 Z"/><path fill="url(#c)" d="M39.6822153,36.3449517 L33.506901,30 L15.2775282,48.6881985 C16.129701,49.4668648 17.4025776,49.5110789 18.3042083,48.7933321 L39.6822153,36.3449517"/><path fill="url(#d)" d="M39.6822153,23.6692555 L18.3042083,11.2208752 C17.4087909,10.4913761 16.1311345,10.5285595 15.2775282,11.30896 L33.506901,30 L39.6822153,23.6692555 Z"/><path fill="#000" d="M39.5048275,36.194355 L18.3042083,48.5688577 C17.4382222,49.2394637 16.243295,49.2394637 15.3773088,48.5688577 L15.3773088,48.5688577 L15.2775282,48.6739913 L15.2775282,48.6739913 L15.3773088,48.7933321 L15.3773088,48.7933321 C16.243295,49.463938 17.4382222,49.463938 18.3042083,48.7933321 L39.6822153,36.3449517 L39.5048275,36.194355 Z" opacity=".2"/><path fill="#000" d="M15.2775282 48.4779314C14.8066061 47.8837732 14.5755138 47.1272916 14.6317255 46.3638947L14.6317255 46.5997348C14.5812504 47.3652875 14.8283724 48.1202056 15.3191034 48.6995643L15.4216558 48.5944308 15.2775282 48.4779314ZM46.8220761 31.9492328 39.5048275 36.194355 39.6378684 36.3449517 46.8220761 32.1594999C47.6850963 31.7845675 48.27938 30.9562605 48.3714481 30L48.3714481 30C48.1860066 30.8649993 47.6110159 31.5883832 46.8220761 31.9492328L46.8220761 31.9492328Z" opacity=".12"/><path fill="#FFF" d="M18.3042083,11.4311423 L46.8220761,28.0507672 C47.6121304,28.4101227 48.187659,29.1341833 48.3714481,30 L48.3714481,30 C48.2805496,29.0432799 47.6858726,28.2144247 46.8220761,27.8405001 L18.3042083,11.2208752 C16.2725631,10.018943 14.6317255,11.0106081 14.6317255,13.4087895 L14.6317255,13.6389468 C14.6317255,11.2350824 16.2808782,10.2434173 18.3042083,11.4311423 Z" opacity=".25"/><path fill="#FFF" stroke="#FFF" stroke-width=".85" d="M60.4005613,19.5008524 L60.4005613,10.5133548 L63.0780091,10.5133548 C64.6991689,10.4298116 66.2333041,11.2689298 67.0683273,12.6959188 C67.9033504,14.1229079 67.9033504,15.9055066 67.0683273,17.3324956 C66.2333041,18.7594847 64.6991689,19.5986028 63.0780091,19.5150597 L60.4005613,19.5008524 Z M61.5258655,18.3898466 L63.0780091,18.3898466 C63.9656865,18.4351122 64.8344012,18.1160985 65.4921468,17.503315 C66.1086148,16.8275701 66.4307513,15.9240128 66.3846294,15 C66.4351026,14.0770178 66.1122533,13.1735168 65.4921468,12.5023679 C64.8401031,11.8785533 63.9686374,11.5534008 63.0780091,11.6016291 L61.5258655,11.6016291 L61.5258655,18.3898466 Z"/><polygon fill="#FFF" stroke="#FFF" stroke-width=".85" points="69.12 19.501 69.12 10.499 70.232 10.499 70.232 19.501"/><path fill="#FFF" stroke="#FFF" stroke-width=".85" d="M74.7246298 19.6940708C74.0564496 19.68318 73.4074977 19.4630706 72.8648291 19.0632696 72.2592422 18.6388977 71.8309805 17.9970666 71.6646895 17.2646335L72.690213 16.829892C72.8154013 17.3176641 73.0798516 17.7559858 73.4496547 18.0886532 73.7999004 18.4123075 74.2531327 18.5941232 74.7246298 18.6001137 75.1778687 18.6123889 75.6216748 18.4660749 75.9829748 18.1852624 76.324173 17.9452947 76.5226542 17.5436954 76.509595 17.1197196 76.5319839 16.6653633 76.3350991 16.2287508 75.9829748 15.9518848 75.4814084 15.6051258 74.9268165 15.3467809 74.3421373 15.1875355 73.6837986 15.0127992 73.076869 14.67634 72.5738022 14.2072362 72.1779769 13.8150305 71.9599411 13.2711573 71.9723465 12.7069521 71.9710476 12.0553808 72.2425471 11.4345637 72.7179298 11.0020837 73.805956 10.113564 75.3325618 10.0582056 76.4791065 10.8656943 76.9002289 11.1749331 77.216999 11.6109031 77.3854475 12.1130896L76.3626957 12.547831C76.2662583 12.2360447 76.0773166 11.9628818 75.8222171 11.766433 75.5031856 11.5049525 75.1021436 11.3716111 74.6941413 11.391362 74.2940205 11.3854492 73.9035672 11.5175419 73.5854672 11.766433 73.2965822 11.982817 73.1273117 12.3288209 73.1309109 12.6955863 73.1239461 13.0346414 73.283176 13.3547152 73.5549787 13.5480205 73.9303156 13.8318115 74.3516242 14.045363 74.7994653 14.1788217 75.1643704 14.2962203 75.522492 14.4347262 75.8721074 14.593673 76.1818566 14.7413786 76.4754498 14.9223493 76.7479599 15.133548 77.0375805 15.3457701 77.2694354 15.630412 77.4214794 15.9604092 77.7450683 16.7018771 77.7349358 17.5515763 77.3937625 18.284713 77.2366079 18.6117809 76.9986705 18.8909736 76.703613 19.0945255 76.4176882 19.3002777 76.1013833 19.4576139 75.7667834 19.5605228 75.4278184 19.6579641 75.0765617 19.7029763 74.7246298 19.6940708ZM80.4731047 19.5008524 79.3478005 19.5008524 79.3478005 10.5133548 82.2747 10.5133548C82.9940182 10.4983735 83.6904621 10.7727431 84.2148795 11.2777041 84.7378636 11.7695861 85.0355904 12.4638188 85.0355904 13.1914188 85.0355904 13.9190189 84.7378636 14.6132515 84.2148795 15.1051335 83.6904621 15.6100945 82.9940182 15.8844642 82.2747 15.8694829L80.4731047 15.8694829 80.4731047 19.5008524ZM80.4731047 14.7442697 82.3606222 14.7442697C82.972156 14.7393831 83.5202415 14.3563011 83.7480995 13.7744986 83.9759574 13.1926962 83.8384518 12.5274218 83.4000041 12.090358 83.1068204 11.7658396 82.6890937 11.5901777 82.2580699 11.6101534L80.4731047 11.6101534 80.4731047 14.7442697ZM93.6413805 18.3301762C91.8641067 20.1519657 88.9828016 20.1519657 87.2055277 18.3301762 86.3331446 17.4565116 85.8550981 16.2498472 85.8862056 15 85.8481105 13.754988 86.314693 12.5494003 87.1750392 11.6698238 88.953264 9.8477091 91.8354389 9.8477091 93.6136636 11.6698238 94.4672997 12.5547517 94.9360657 13.7556511 94.913584 15 94.9577326 16.242785 94.497058 17.4486674 93.6413805 18.3301762L93.6413805 18.3301762ZM88.0370333 17.5800341C88.6616954 18.2422218 89.5249493 18.6112212 90.4234541 18.6001137 91.3223578 18.6176699 92.1871667 18.247576 92.8071033 17.5800341 93.4578615 16.89146 93.8019382 15.9576839 93.7577913 15 93.7935984 14.0383066 93.4394153 13.1043328 92.7793864 12.4199659 92.1489977 11.7673336 91.290265 11.4001477 90.3943514 11.4001477 89.4984378 11.4001477 88.6397052 11.7673336 88.0093164 12.4199659 87.358103 13.1093711 87.0088395 14.0409279 87.0419983 15 87.009162 15.9590168 87.3583787 16.8904485 88.0093164 17.5800341L88.0370333 17.5800341Z"/><polygon fill="#FFF" stroke="#FFF" stroke-width=".85" points="96.568 19.501 96.568 10.499 97.943 10.499 102.2 17.503 102.2 17.503 102.2 15.764 102.2 10.499 103.342 10.499 103.342 19.501 102.159 19.501 97.768 12.164 97.768 12.164 97.768 13.889 97.768 19.501"/><polygon fill="#FFF" stroke="#FFF" stroke-width=".85" points="105.346 19.501 105.346 10.499 106.474 10.499 106.474 19.501"/><path fill="#FFF" stroke="#FFF" stroke-width=".85" d="M108.406147,19.5008524 L108.406147,10.5133548 L111.579726,10.5133548 C112.237988,10.506677 112.874814,10.7530181 113.364692,11.2038265 C113.859523,11.6448421 114.138588,12.2877612 114.126905,12.9598409 C114.129344,13.3626236 114.017651,13.7574673 113.805389,14.0964198 C113.588623,14.4185784 113.289401,14.6732226 112.940624,14.8323546 L112.940624,14.8323546 C113.361228,14.9751027 113.728896,15.2468834 113.993864,15.6109112 C114.273712,15.973765 114.423428,16.4241869 114.417932,16.886721 C114.433382,17.5868058 114.143829,18.257561 113.628002,18.716613 C113.119832,19.2008532 112.448003,19.4637151 111.754343,19.4497064 L108.406147,19.5008524 Z M109.531451,14.3549915 L111.579726,14.3549915 C111.968314,14.3777683 112.34584,14.217727 112.60525,13.92025 C112.852376,13.6699471 112.993717,13.3301502 112.998829,12.9740481 C113.012576,12.6171855 112.892577,12.2684609 112.663455,11.9994317 C112.414231,11.7158372 112.054235,11.5615424 111.682279,11.5788975 L109.531451,11.5788975 L109.531451,14.3549915 Z M109.531451,18.3898466 L111.798689,18.3898466 C112.205485,18.4071364 112.598312,18.2360348 112.86856,17.9238492 C113.261534,17.4838813 113.359787,16.8456514 113.118083,16.3029971 C112.876379,15.7603429 112.341573,15.4184568 111.759886,15.4347414 L109.542538,15.4347414 L109.531451,18.3898466 Z"/><polygon fill="#FFF" stroke="#FFF" stroke-width=".85" points="115.94 19.501 115.94 10.499 117.051 10.499 117.051 18.39 120.857 18.39 120.857 19.501"/><polygon fill="#FFF" stroke="#FFF" stroke-width=".85" points="127.412 11.61 123.418 11.61 123.418 14.46 127.015 14.46 127.015 15.54 123.418 15.54 123.418 18.39 127.412 18.39 127.412 19.501 122.29 19.501 122.29 10.499 127.412 10.499"/><path fill="#FFF" stroke="#FFF" stroke-width=".85" d="M134.229937 19.6940708C133.557541 19.6828232 132.904264 19.4628859 132.356278 19.0632696 131.75636 18.6364379 131.334126 17.9947484 131.172768 17.2646335L132.19552 16.829892C132.32068 17.3183585 132.586254 17.7569421 132.957733 18.0886532 133.307265 18.4116658 133.759398 18.5934359 134.229937 18.6001137 134.681797 18.6119463 135.124603 18.4689617 135.488282 18.1937867 135.82948 17.953819 136.027961 17.5522198 136.014902 17.128244 136.037291 16.6738877 135.840406 16.2372752 135.488282 15.9604092 134.979249 15.6126188 134.417202 15.3542923 133.825271 15.1960599 133.171132 15.0225981 132.568625 14.6869277 132.070794 14.218602 131.668763 13.8307445 131.449538 13.2839055 131.469338 12.7183179 131.468742 12.0663002 131.741282 11.4454111 132.217693 11.0134495 133.304513 10.1244929 134.830686 10.0691093 135.976098 10.87706 136.39825 11.1858698 136.716023 11.6218861 136.885211 12.1244554L135.859688 12.5591968C135.764015 12.2431909 135.569125 11.9684725 135.305351 11.7777988 134.993782 11.5164692 134.598771 11.3828347 134.196677 11.4027278 133.796622 11.3972554 133.406305 11.5293018 133.088003 11.7777988 132.797058 11.9939175 132.623275 12.3386362 132.619588 12.7069521 132.618851 13.0445123 132.77669 13.3617904 133.043656 13.5593862 133.422203 13.8377356 133.84257 14.0508094 134.288142 14.1901875 134.66582 14.2999719 135.036155 14.4347499 135.396816 14.593673 135.705656 14.7447992 135.999843 14.9255642 136.27544 15.133548 136.563544 15.3466815 136.7943 15.6311458 136.946188 15.9604092 137.098224 16.3247469 137.173773 16.7178055 137.167923 17.1140367 137.179003 17.5192646 137.093372 17.9211345 136.918471 18.284713 136.757474 18.6135071 136.514612 18.892868 136.214463 19.0945255 135.929219 19.2997117 135.613917 19.4570144 135.280405 19.5605228 134.942251 19.6572716 134.592009 19.7022734 134.241024 19.6940708L134.229937 19.6940708ZM141.838212 19.6940708C140.952366 19.7337912 140.093139 19.3783408 139.48228 18.7194544 138.86869 18.0202824 138.548101 17.1016719 138.589797 16.1621519L138.589797 10.5133548 139.715102 10.5133548 139.715102 16.1962493C139.67439 16.8465848 139.872088 17.4890595 140.269439 17.9977268 140.671685 18.4511364 141.252524 18.6934985 141.849299 18.6569426 142.436519 18.6892756 143.006353 18.4468265 143.398671 17.9977268 143.782143 17.5045693 143.978995 16.8860316 143.953008 16.2559197L143.953008 10.5133548 145.078312 10.5133548 145.078312 16.1678348C145.12128 17.1045114 144.807187 18.0215976 144.20246 18.7251373 143.591234 19.3881068 142.7268 19.7423759 141.838212 19.6940708ZM146.899309 19.5008524 146.899309 10.5133548 149.826209 10.5133548C150.545527 10.4983735 151.241971 10.7727431 151.766388 11.2777041 152.309077 11.758837 152.613977 12.4631725 152.597894 13.1985224 152.597829 13.8093804 152.384475 14.4000372 151.996438 14.8636105 151.622565 15.3255315 151.106434 15.6432048 150.532988 15.7643493L150.532988 15.7643493 152.991473 19.5150597 151.661064 19.5150597 149.260785 15.8694829 148.016298 15.8694829 148.016298 19.5008524 146.899309 19.5008524ZM148.027385 14.7755257 149.840067 14.7755257C150.267665 14.7828825 150.681592 14.6210819 150.99586 14.3237356 151.310222 14.0345821 151.487111 13.6200886 151.480905 13.1871567 151.47626 12.7813129 151.325192 12.3916066 151.056837 12.0931995 150.763214 11.7693312 150.345794 11.5937985 149.914903 11.6129949L148.027385 11.6129949 148.027385 14.7755257Z"/></g></svg>